<mxfile host="app.diagrams.net" modified="2023-12-15T16:37:07.833Z" agent="Mozilla/5.0 (Windows NT 10.0; Win64; x64) AppleWebKit/537.36 (KHTML, like Gecko) Chrome/120.0.0.0 Safari/537.36" version="22.1.9" etag="62Kx0VIxp9HFq2IlDSJT" type="github">
  <diagram name="Page-1" id="7BT7nTKZ2lIxkuBA459Z">
    <mxGraphModel>
      <root>
        <mxCell id="0" />
        <mxCell id="1" parent="0" />
      </root>
    </mxGraphModel>
  </diagram>
</mxfile>
